<svg class="w-6 h-6" width="24" height="24" viewBox="0 0 24 24" fill="none" xmlns="http://www.w3.org/2000/svg"><path d="M15.293 5.29298C15.6591 4.92686 16.2381 4.90427 16.6308 5.22462L16.707 5.29298L22.707 11.293C23.0975 11.6835 23.0975 12.3165 22.707 12.707L16.707 18.707C16.3165 19.0976 15.6835 19.0976 15.293 18.707C14.9024 18.3165 14.9024 17.6835 15.293 17.293L20.5859 12L15.293 6.70704L15.2246 6.63087C14.9042 6.2381 14.9268 5.65909 15.293 5.29298Z" fill="#686583" style="fill-opacity:1;"/><path d="M7.29295 5.29302C7.68348 4.90249 8.31649 4.90249 8.70702 5.29302C9.09754 5.68354 9.09754 6.31655 8.70702 6.70708L3.41405 12L8.70702 17.293L8.77538 17.3692C9.09573 17.762 9.07313 18.341 8.70702 18.7071C8.3409 19.0732 7.7619 19.0958 7.36913 18.7754L7.29295 18.7071L1.29295 12.7071C0.90243 12.3166 0.90243 11.6835 1.29295 11.293L7.29295 5.29302Z" fill="#686583" style="fill-opacity:1;"/></svg>