<svg class="w-6 h-6" width="24" height="24" viewBox="0 0 24 24" fill="none" xmlns="http://www.w3.org/2000/svg"><path d="M21 4C21 3.44772 20.5523 3 20 3H4C3.44772 3 3 3.44772 3 4V8C3 8.55228 3.44772 9 4 9H20C20.5523 9 21 8.55228 21 8V4ZM23 8C23 9.65685 21.6569 11 20 11H4C2.34315 11 1 9.65685 1 8V4C1 2.34315 2.34315 1 4 1H20C21.6569 1 23 2.34315 23 4V8Z" fill="#686583" style="fill-opacity:1;"/><path d="M21 16C21 15.4477 20.5523 15 20 15H4C3.44772 15 3 15.4477 3 16V20C3 20.5523 3.44772 21 4 21H20C20.5523 21 21 20.5523 21 20V16ZM23 20C23 21.6569 21.6569 23 20 23H4C2.34315 23 1 21.6569 1 20V16C1 14.3431 2.34315 13 4 13H20C21.6569 13 23 14.3431 23 16V20Z" fill="#686583" style="fill-opacity:1;"/><path d="M6.00977 5L6.1123 5.00488C6.61655 5.05611 7.00977 5.48224 7.00977 6C7.00977 6.51776 6.61655 6.94389 6.1123 6.99512L6.00977 7H6C5.44772 7 5 6.55228 5 6C5 5.44772 5.44772 5 6 5H6.00977Z" fill="#686583" style="fill-opacity:1;"/><path d="M6.00977 17L6.1123 17.0049C6.61655 17.0561 7.00977 17.4822 7.00977 18C7.00977 18.5178 6.61655 18.9439 6.1123 18.9951L6.00977 19H6C5.44772 19 5 18.5523 5 18C5 17.4477 5.44772 17 6 17H6.00977Z" fill="#686583" style="fill-opacity:1;"/></svg>